[CENTER][CENTER][SIZE="5"][U]Thor [2011] TS Rip XviD 400MB  [/U][/SIZE][/CENTER]


 [URL=http://www.grinshare.com/][IMG]http://www.grinshare.com/img/MVQ161.jpg[/IMG][/URL] 

[CENTER][SIZE="4"][QUOTE]Format                           : MPEG-4
Format profile                   : Base Media / Version 2
Codec ID                         : mp42
File size                        : 398 MiB
Duration                         : 1h 44mn
Overall bit rate                 : 535 Kbps


Video
ID                               : 1
Format                           : AVC
Format/Info                      : Advanced Video Codec
Format profile                   : Main@L2.1
Format settings, CABAC           : Yes
Format settings, ReFrames        : 4 frames
Codec ID                         : avc1
Codec ID/Info                    : Advanced Video Coding
Duration                         : 1h 44mn
Bit rate mode                    : Variable
Bit rate                         : 374 Kbps
Width                            : 624 pixels
Height                           : 272 pixels
Display aspect ratio             : 2.25:1
Frame rate mode                  : Constant
Frame rate                       : 25.000 fps
Color space                      : YUV
Chroma subsampling               : 4:2:0
Bit depth                        : 8 bits
Scan type                        : Progressive
Bits/(Pixel*Frame)               : 0.088
Stream size                      : 276 MiB (69%)
Writing library                  : x264 core 112
Color primaries                  : BT.601-6 525, BT.1358 525, BT.1700 NTSC, SMPTE 170M
Transfer characteristics         : BT.709-5, BT.1361
Matrix coefficients              : BT.601-6 525, BT.1358 525, BT.1700 NTSC, SMPTE 170M

Audio
ID                               : 2
Format                           : AAC
Format/Info                      : Advanced Audio Codec
Format profile                   : LC
Codec ID                         : 40
Duration                         : 1h 44mn
Bit rate mode                    : Variable
Bit rate                         : 160 Kbps
Maximum bit rate                 : 212 Kbps
Channel(s)                       : 2 channels
Channel positions                : Front: L R
Sampling rate                    : 44.1 KHz
Compression mode                 : Lossy
Stream size                      : 119 MiB (30%)
Encoded date                     : UTC 2011-05-02 09:56:43
Tagged date                      : UTC 2011-05-02 10:14:56
Source                                : IMAGiNE[/QUOTE][/SIZE][/CENTER]

[URL=http://www.grinshare.com/][IMG]http://www.grinshare.com/img/2DOZP2.png[/IMG][/URL] [URL=http://www.grinshare.com/][IMG]http://www.grinshare.com/img/08VULU.png[/IMG][/URL] [URL=http://www.grinshare.com/][IMG]http://www.grinshare.com/img/0DZGXT.png[/IMG][/URL] [URL=http://www.grinshare.com/][IMG]http://www.grinshare.com/img/OFDFS2.png[/IMG][/URL] [URL=http://www.grinshare.com/][IMG]http://www.grinshare.com/img/VGK21R.png[/IMG][/URL][/CENTER]